<svg width="371" height="368" viewBox="0 0 371 368" fill="none" xmlns="http://www.w3.org/2000/svg">
<path d="M1 166H35C52.6731 166 67 151.673 67 134V133C67 115.327 81.3269 101 99 101H196C213.673 101 228 86.6731 228 69V52C228 34.3269 242.327 20 260 20H370" stroke="url(#paint0_linear_7010_18764)" stroke-width="2" stroke-linecap="round"/>
<path d="M1 198H74C91.6731 198 106 212.327 106 230V268C106 285.673 120.327 300 138 300H166C177.046 300 186 308.954 186 320V320C186 331.046 194.954 340 206 340H370" stroke="url(#paint1_linear_7010_18764)" stroke-width="2" stroke-linecap="round"/>
<path d="M1 182H127.25C138.71 182 148 191.29 148 202.75V202.75C148 214.21 157.29 223.5 168.75 223.5H370" stroke="url(#paint2_linear_7010_18764)" stroke-width="2" stroke-linecap="round"/>
<rect x="267" width="40" height="40" rx="8" fill="#F7F6F8"/>
<rect x="244" y="312" width="56" height="56" rx="8" fill="#EFEDF2"/>
<path d="M262 335L270.165 340.715C270.826 341.178 271.157 341.41 271.516 341.499C271.834 341.579 272.166 341.579 272.484 341.499C272.843 341.41 273.174 341.178 273.835 340.715L282 335M266.8 348H277.2C278.88 348 279.72 348 280.362 347.673C280.926 347.385 281.385 346.926 281.673 346.362C282 345.72 282 344.88 282 343.2V336.8C282 335.12 282 334.28 281.673 333.638C281.385 333.074 280.926 332.615 280.362 332.327C279.72 332 278.88 332 277.2 332H266.8C265.12 332 264.28 332 263.638 332.327C263.074 332.615 262.615 333.074 262.327 333.638C262 334.28 262 335.12 262 336.8V343.2C262 344.88 262 345.72 262.327 346.362C262.615 346.926 263.074 347.385 263.638 347.673C264.28 348 265.12 348 266.8 348Z" stroke="#1F0045" stroke-width="2" stroke-linecap="round" stroke-linejoin="round"/>
<rect x="129" y="73" width="56" height="56" rx="8" fill="#FF5300"/>
<path d="M166 99H148M161 91V95M153 91V95M152.8 111H161.2C162.88 111 163.72 111 164.362 110.673C164.926 110.385 165.385 109.926 165.673 109.362C166 108.72 166 107.88 166 106.2V97.8C166 96.1198 166 95.2798 165.673 94.638C165.385 94.0735 164.926 93.6146 164.362 93.327C163.72 93 162.88 93 161.2 93H152.8C151.12 93 150.28 93 149.638 93.327C149.074 93.6146 148.615 94.0735 148.327 94.638C148 95.2798 148 96.1198 148 97.8V106.2C148 107.88 148 108.72 148.327 109.362C148.615 109.926 149.074 110.385 149.638 110.673C150.28 111 151.12 111 152.8 111Z" stroke="white" stroke-width="2" stroke-linecap="round"/>
<rect x="207" y="203" width="40" height="40" rx="8" fill="#F7F6F8"/>
<defs>
<linearGradient id="paint0_linear_7010_18764" x1="362" y1="93" x2="0.999995" y2="93" gradientUnits="userSpaceOnUse">
<stop stop-color="#EFEDF2" stop-opacity="0"/>
<stop offset="1" stop-color="#1F0045" stop-opacity="0.2"/>
</linearGradient>
<linearGradient id="paint1_linear_7010_18764" x1="362" y1="269" x2="0.999995" y2="269" gradientUnits="userSpaceOnUse">
<stop stop-color="#EFEDF2" stop-opacity="0"/>
<stop offset="1" stop-color="#1F0045" stop-opacity="0.2"/>
</linearGradient>
<linearGradient id="paint2_linear_7010_18764" x1="362" y1="202.75" x2="0.999995" y2="202.75" gradientUnits="userSpaceOnUse">
<stop stop-color="#EFEDF2" stop-opacity="0"/>
<stop offset="1" stop-color="#1F0045" stop-opacity="0.4"/>
</linearGradient>
</defs>
</svg>
